<svg xmlns:xlink="http://www.w3.org/1999/xlink" preserveAspectRatio="xMidYMid meet" data-bbox="39 39 122 122" viewBox="39 39 122 122" height="200" width="200" xmlns="http://www.w3.org/2000/svg" data-type="color" role="presentation" aria-hidden="true"><defs><style>#comp-kgag1d0k svg [data-color="1"] {fill: #007CAF;}
#comp-kgag1d0k svg [data-color="2"] {fill: #ED1C24;}
#comp-kgag1d0k svg [data-color="3"] {fill: #D5D4D3;}</style></defs>
    <g>
        <path d="M70.36 60.923a49.3 49.3 0 0 0-9.437 9.437l-10.686-6.17a61.631 61.631 0 0 1 13.954-13.954l6.169 10.687zM51.337 93.87H39a60.932 60.932 0 0 1 5.097-19.067l10.687 6.17a48.716 48.716 0 0 0-3.447 12.897zm78.303 45.207a49.3 49.3 0 0 0 9.437-9.437l10.686 6.17a61.631 61.631 0 0 1-13.954 13.954l-6.169-10.687zm19.023-32.947H161a60.932 60.932 0 0 1-5.097 19.067l-10.687-6.17a48.716 48.716 0 0 0 3.447-12.897zM70.36 139.077l-6.17 10.686a61.631 61.631 0 0 1-13.954-13.954l10.687-6.17a49.248 49.248 0 0 0 9.437 9.438zM51.337 106.13a48.7 48.7 0 0 0 3.447 12.896l-10.687 6.17A60.89 60.89 0 0 1 39 106.129h12.337zM93.87 51.337a48.7 48.7 0 0 0-12.896 3.447l-6.17-10.687A60.89 60.89 0 0 1 93.871 39v12.337zm12.26 97.326a48.7 48.7 0 0 0 12.896-3.447l6.17 10.687A60.89 60.89 0 0 1 106.129 161v-12.337zm-12.26 0V161a60.932 60.932 0 0 1-19.067-5.097l6.17-10.687a48.716 48.716 0 0 0 12.897 3.447z" fill="#007CAF" data-color="1"></path>
        <path d="M148.663 93.87c-2.766-22.187-20.347-39.767-42.533-42.533V39c28.962 2.875 51.995 25.902 54.87 54.87h-12.337z" fill="#ED1C24" data-color="2"></path>
        <path fill="#D5D4D3" d="M103.081 108.888l-19.32-.873.232-5.07 13.766.624-1.257-27.68 5.067-.23 1.512 33.229z" data-color="3"></path>
    </g>
</svg>