<svg xmlns:xlink="http://www.w3.org/1999/xlink" preserveAspectRatio="xMidYMid meet" data-bbox="60.5 57 79 86" viewBox="60.5 57 79 86" height="200" width="200" xmlns="http://www.w3.org/2000/svg" data-type="color" role="presentation" aria-hidden="true" aria-label=""><defs><style>#comp-jwsvbu1s svg [data-color="1"] {fill: #FFFFFF;}</style></defs>
    <g>
        <path d="M138.611 91.729l-7.543-4.754V58.901A1.907 1.907 0 0 0 129.156 57H70.843a1.907 1.907 0 0 0-1.912 1.901v27.816l-7.582 5.037a1.9 1.9 0 0 0-.849 1.58v47.765c0 1.049.856 1.901 1.912 1.901h75.176a1.907 1.907 0 0 0 1.912-1.901V93.334c0-.651-.336-1.257-.889-1.605zm-7.542-.254l3.936 2.481-3.936 2.614v-5.095zM72.755 60.802h54.49v38.185c0 .039.02.071.022.109l-26.304 17.474-28.208-17.776V60.802zM68.931 91.29v5.095l-3.936-2.48 3.936-2.615zm66.745 47.908H64.324V97.981l35.644 22.462a1.91 1.91 0 0 0 1.023.296c.371 0 .742-.106 1.063-.321l33.623-22.335v41.115z" fill="#FFFFFF" data-color="1"></path>
        <path d="M106.691 95.931l-1.207-3.864-.68.364c-1.411.755-3.326 1.155-5.534 1.155-4.545 0-9.131-2.922-9.131-9.45 0-6.944 4.446-11.794 10.813-11.794 5.516 0 8.942 3.121 8.942 8.147 0 3.191-1.133 4.767-1.81 5.424-.54.526-1.158.825-1.69.825l-.032-.001c-.416-.012-.513-.131-.548-.176-.127-.155-.301-.634-.042-2.092l1.045-5.793a3.12 3.12 0 0 0-.515-2.325 2.905 2.905 0 0 0-1.887-1.199 12.206 12.206 0 0 0-2.041-.172c-5.499 0-9.805 4.463-9.805 10.159 0 3.375 1.972 5.731 4.792 5.731 1.947 0 3.612-.743 4.971-2.21.505 1.407 1.735 2.21 3.487 2.21 3.943 0 7.933-3.642 7.933-10.605 0-7.121-5.108-12.095-12.424-12.095-8.74 0-15.083 6.808-15.083 16.188 0 8.843 6.383 13.47 12.688 13.47 3.054 0 5.31-.507 7.314-1.645l.444-.252zm-4.232-13.917c-.478 2.648-2.337 4.723-4.237 4.723-.757 0-1.76-.208-1.76-2.007 0-3.267 2.22-5.73 5.163-5.73a7.45 7.45 0 0 1 1.399.118l-.565 2.896z" fill="#FFFFFF" data-color="1"></path>
    </g>
</svg>