<svg xmlns:xlink="http://www.w3.org/1999/xlink" preserveAspectRatio="xMidYMid meet" data-bbox="19.998 29.58 160 140.837" xmlns="http://www.w3.org/2000/svg" width="200" height="200" viewBox="19.998 29.58 160 140.837" data-type="color" role="presentation" aria-hidden="true" aria-label=""><defs><style>#comp-kgq74c41 svg [data-color="2"] {fill: #007CAF;}
#comp-kgq74c41 svg [data-color="3"] {fill: #ED1C24;}</style></defs>
    <g>
        <path fill="#FFFFFF" d="M81.566 111.437H29.55a4.857 4.857 0 01-4.857-4.857V36.014c0-.961.779-1.739 1.739-1.739H71c2.682 0 15.423 10.043 15.423 12.725v59.58a4.857 4.857 0 01-4.857 4.857z" data-color="1"></path>
        <path fill="#007CAF" d="M63.619 116.132H47.496c-15.163 0-27.498-12.335-27.498-27.498V42.441c0-7.092 5.769-12.861 12.86-12.861h30.761c15.163 0 27.499 12.335 27.499 27.498v31.557c0 15.162-12.336 27.497-27.499 27.497zM32.858 38.97a3.475 3.475 0 00-3.47 3.471v46.193c0 9.984 8.124 18.108 18.108 18.108h16.123c9.985 0 18.109-8.124 18.109-18.108V57.078c0-9.984-8.124-18.108-18.109-18.108H32.858z" data-color="2"></path>
        <path d="M153.297 54.852v87.45H24.693v-87.45h128.604z" fill="#FFFFFF" data-color="1"></path>
        <path fill="#007CAF" d="M153.296 146.997H24.693a4.695 4.695 0 01-4.695-4.695v-87.45a4.695 4.695 0 014.695-4.695h128.603a4.695 4.695 0 014.695 4.695v87.451a4.695 4.695 0 01-4.695 4.694zm-123.908-9.39h119.213v-78.06H29.388v78.06z" data-color="2"></path>
        <path d="M175.32 135.109c0 16.916-13.713 30.629-30.629 30.629-16.916 0-30.629-13.713-30.629-30.629 0-16.916 13.713-30.629 30.629-30.629 16.916 0 30.629 13.713 30.629 30.629z" fill="#ED1C24" data-color="3"></path>
        <path fill="#007CAF" d="M144.691 170.417c-9.046 0-18.091-3.443-24.978-10.33-13.773-13.772-13.773-36.183 0-49.955 13.771-13.772 36.182-13.773 49.955 0 13.773 13.772 13.773 36.183 0 49.955-6.885 6.886-15.932 10.33-24.977 10.33zm0-61.229c-6.643 0-13.282 2.526-18.339 7.583-10.111 10.112-10.111 26.565 0 36.677 10.112 10.11 26.565 10.11 36.677 0 10.111-10.112 10.111-26.565 0-36.677-5.055-5.056-11.698-7.583-18.338-7.583z" data-color="2"></path>
        <path d="M138.762 137.681l5.144 5.144 10.289-15.432" fill="#ED1C24" data-color="3"></path>
        <path fill="#007CAF" d="M143.906 147.52a4.698 4.698 0 01-3.321-1.376L135.442 141a4.695 4.695 0 016.641-6.639l1.094 1.094 7.111-10.666a4.696 4.696 0 017.813 5.209l-10.289 15.432a4.699 4.699 0 01-3.906 2.09z" data-color="2"></path>
    </g>
</svg>