<svg xmlns:xlink="http://www.w3.org/1999/xlink" preserveAspectRatio="xMidYMid meet" data-bbox="20 22.747 160.003 154.506" xmlns="http://www.w3.org/2000/svg" width="200" height="200" viewBox="20 22.747 160.003 154.506" data-type="color" role="presentation" aria-hidden="true" aria-label=""><defs><style>#comp-kgq70z3y svg [data-color="2"] {fill: #007CAF;}
#comp-kgq70z3y svg [data-color="3"] {fill: #ED1C24;}</style></defs>
    <g>
        <path d="M126.171 49.665v123.143H24.444V49.665h101.727z" fill="#FFFFFF" data-color="1"></path>
        <path fill="#007CAF" d="M126.172 177.253H24.444A4.444 4.444 0 0120 172.809V49.666a4.444 4.444 0 014.444-4.444h101.727a4.444 4.444 0 014.444 4.444v123.142a4.443 4.443 0 01-4.443 4.445zm-97.283-8.889h92.839V54.11H28.889v114.254z" data-color="2"></path>
        <path fill="#007CAF" d="M69.199 84.896H45.86a4.444 4.444 0 010-8.888h23.339a4.444 4.444 0 010 8.888z" data-color="2"></path>
        <path fill="#007CAF" d="M104.755 115.681H45.86a4.444 4.444 0 010-8.888h58.894a4.444 4.444 0 01.001 8.888z" data-color="2"></path>
        <path fill="#007CAF" d="M104.755 146.467H45.86a4.444 4.444 0 010-8.888h58.894a4.444 4.444 0 01.001 8.888z" data-color="2"></path>
        <path d="M159.305 59.151c0 17.651-14.309 31.96-31.96 31.96-17.651 0-31.96-14.309-31.96-31.96 0-17.651 14.309-31.96 31.96-31.96 17.651 0 31.96 14.309 31.96 31.96z" fill="#ED1C24" data-color="3"></path>
        <path fill="#007CAF" d="M127.345 95.538c-9.323 0-18.645-3.548-25.741-10.646-6.876-6.876-10.663-16.018-10.663-25.741 0-9.724 3.787-18.866 10.663-25.741 6.875-6.876 16.017-10.663 25.741-10.663 9.723 0 18.865 3.787 25.741 10.663 14.194 14.193 14.194 37.288 0 51.482-7.096 7.098-16.419 10.646-25.741 10.646zm0-63.902c-7.35 0-14.259 2.862-19.456 8.059-5.196 5.197-8.059 12.106-8.059 19.456 0 7.349 2.862 14.259 8.059 19.456 10.728 10.727 28.183 10.727 38.913 0 10.727-10.729 10.727-28.185 0-38.913-5.198-5.195-12.108-8.058-19.457-8.058z" data-color="2"></path>
        <path fill="#007CAF" d="M175.556 111.807a4.428 4.428 0 01-3.142-1.302l-24.106-24.106a4.443 4.443 0 010-6.285 4.443 4.443 0 016.285 0l24.106 24.106a4.443 4.443 0 01-3.143 7.587z" data-color="2"></path>
    </g>
</svg>