<svg xmlns:xlink="http://www.w3.org/1999/xlink" preserveAspectRatio="xMidYMid meet" data-bbox="47 61 105.999 78" viewBox="47 61 105.999 78" height="200" width="200" xmlns="http://www.w3.org/2000/svg" data-type="color" role="presentation" aria-hidden="true" aria-label=""><defs><style>#comp-kgq73341 svg [data-color="1"] {fill: #007CAF;}
#comp-kgq73341 svg [data-color="2"] {fill: #ED1C24;}</style></defs>
    <g>
        <path d="M149.731 139H50.269c-1.806 0-3.269-1.452-3.269-3.243V81.204c0-1.791 1.464-3.243 3.269-3.243h99.461c1.806 0 3.269 1.452 3.269 3.243v54.553c.001 1.791-1.463 3.243-3.268 3.243zm-96.192-6.486h92.922V84.447H53.539v48.067z" fill="#007CAF" data-color="1"></path>
        <path fill="#007CAF" d="M104.15 108.48c0 2.274-1.858 4.117-4.15 4.117-2.292 0-4.15-1.843-4.15-4.117s1.858-4.117 4.15-4.117c2.292 0 4.15 1.843 4.15 4.117z" data-color="1"></path>
        <path fill="#ED1C24" d="M117.474 108.48c0 9.573-7.823 17.334-17.474 17.334-9.65 0-17.474-7.76-17.474-17.334 0-9.573 7.823-17.334 17.474-17.334 9.65 0 17.474 7.76 17.474 17.334z" data-color="2"></path>
        <path d="M140.472 73.037H59.528a2.014 2.014 0 0 1-2.022-2.006c0-1.108.905-2.006 2.022-2.006h80.944c1.117 0 2.022.898 2.022 2.006a2.014 2.014 0 0 1-2.022 2.006z" fill="#007CAF" data-color="1"></path>
        <path d="M129.685 65.012h-59.37c-1.117 0-2.022-.898-2.022-2.006S69.197 61 70.315 61h59.371c1.117 0 2.022.898 2.022 2.006s-.905 2.006-2.023 2.006z" fill="#007CAF" data-color="1"></path>
        <path fill="#007CAF" d="M74.849 109.201c0 3.329-2.72 6.027-6.076 6.027-3.356 0-6.076-2.698-6.076-6.027s2.72-6.027 6.076-6.027c3.356 0 6.076 2.698 6.076 6.027z" data-color="1"></path>
        <path fill="#007CAF" d="M136.872 109.201c0 3.329-2.72 6.027-6.076 6.027-3.356 0-6.076-2.698-6.076-6.027s2.72-6.027 6.076-6.027c3.356 0 6.076 2.698 6.076 6.027z" data-color="1"></path>
    </g>
</svg>