<svg xmlns:xlink="http://www.w3.org/1999/xlink" data-bbox="10.612 2.563 758.655 138.369" xmlns="http://www.w3.org/2000/svg" viewBox="0 0 112 141" fill-rule="evenodd" clip-rule="evenodd" stroke-linejoin="round" stroke-miterlimit="2" data-type="ugc" width="112"  height="141" >
    <g fill="#FFFFFF">
        <path d="M117.342 76.199a4.361 4.361 0 0 1-4.358-4.36 4.36 4.36 0 0 1 4.358-4.358H765a4.36 4.36 0 0 1 0 8.718H117.342z" fill="#007AAF" fill-rule="nonzero"></path>
        <path d="M10.613 59.516a4.36 4.36 0 1 1 8.718 0v3.673a4.36 4.36 0 1 1-8.718 0v-3.673z" fill="#FFFFFF" fill-rule="nonzero"></path>
        <path d="M44.09 41.89a4.361 4.361 0 0 1 4.359-4.361 4.362 4.362 0 0 1 4.36 4.36v24.944a4.362 4.362 0 0 1-4.36 4.36 4.361 4.361 0 0 1-4.358-4.36V41.89z" fill="#FFFFFF" fill-rule="nonzero"></path>
        <path d="M60.83 7.016a4.36 4.36 0 1 1 8.718 0v31.771a4.36 4.36 0 1 1-8.719 0V7.017z" fill="#FFFFFF" fill-rule="nonzero"></path>
        <path d="M94.31 41.946a4.358 4.358 0 1 1 8.716 0v3.858a4.36 4.36 0 0 1-4.358 4.36 4.36 4.36 0 0 1-4.358-4.36v-3.858z" fill="#FFFFFF" fill-rule="nonzero"></path>
        <path d="M27.352 24.997a4.36 4.36 0 0 1 8.718 0v23.776a4.36 4.36 0 0 1-8.718 0V24.997z" fill="#FFFFFF" fill-rule="nonzero"></path>
        <path d="M77.568 24.345a4.36 4.36 0 0 1 8.719 0v18.088a4.36 4.36 0 1 1-8.719 0V24.345z" fill="#FFFFFF" fill-rule="nonzero"></path>
        <path d="M27.352 66.944a4.36 4.36 0 1 1 8.718 0v51.739a4.36 4.36 0 0 1-8.718 0V66.944z" fill="#007AAF" fill-rule="nonzero"></path>
        <path d="M77.568 59.3a4.36 4.36 0 1 1 8.718 0v60.035a4.36 4.36 0 1 1-8.718 0V59.3z" fill="#007AAF" fill-rule="nonzero"></path>
        <path d="M60.83 55.955a4.36 4.36 0 1 1 8.718 0v80.71a4.36 4.36 0 0 1-8.718 0v-80.71z" fill="#007AAF" fill-rule="nonzero"></path>
        <path d="M10.613 76.995a4.36 4.36 0 1 1 8.718 0v7.17a4.36 4.36 0 0 1-8.718 0v-7.17z" fill="#007AAF" fill-rule="nonzero"></path>
        <path d="M44.09 83.837a4.361 4.361 0 0 1 4.359-4.36 4.362 4.362 0 0 1 4.36 4.36v17.955a4.36 4.36 0 0 1-8.718 0V83.837z" fill="#007AAF" fill-rule="nonzero"></path>
        <path d="M94.31 62.92a4.358 4.358 0 1 1 8.716 0v38.812a4.36 4.36 0 0 1-4.358 4.36 4.36 4.36 0 0 1-4.358-4.36V62.92z" fill="#007AAF" fill-rule="nonzero"></path>
    </g>
</svg>