<svg xmlns:xlink="http://www.w3.org/1999/xlink" preserveAspectRatio="xMidYMid meet" data-bbox="44 45 112 110" viewBox="44 45 112 110" height="200" width="200" xmlns="http://www.w3.org/2000/svg" data-type="color" role="presentation" aria-hidden="true" aria-label=""><defs><style>#comp-kgjgy1p0 svg [data-color="1"] {fill: #007CAF;}
#comp-kgjgy1p0 svg [data-color="2"] {fill: #ED1C24;}</style></defs>
    <g>
        <path d="M93.299 155C66.116 155 44 132.927 44 105.797s22.116-49.203 49.299-49.203c5.463 0 10.83.887 15.954 2.634a3.371 3.371 0 0 1 2.104 4.28l-12.72 37.122 37.567-11.547a3.376 3.376 0 0 1 4.221 2.229 49.128 49.128 0 0 1 2.172 14.485c0 27.13-22.115 49.203-49.298 49.203zm0-91.666c-23.46 0-42.545 19.049-42.545 42.463S69.84 148.26 93.299 148.26s42.545-19.049 42.545-42.463c0-3.127-.339-6.222-1.01-9.241l-40.542 12.461a3.375 3.375 0 0 1-4.189-4.312l13.725-40.063a42.74 42.74 0 0 0-10.529-1.308z" fill="#007CAF" data-color="1"></path>
        <path d="M155.965 75.444c-4.383-14.221-15.426-25.586-29.539-30.402a.795.795 0 0 0-1.007.493l-14.862 43.379a.792.792 0 0 0 .983 1.012l43.899-13.494a.79.79 0 0 0 .526-.988z" fill="#ED1C24" data-color="2"></path>
    </g>
</svg>